<svg width="50" height="54" viewBox="0 0 50 54" fill="none" xmlns="http://www.w3.org/2000/svg">
<path d="M8.33366 45C7.18783 45 6.20692 44.5594 5.39095 43.6781C4.57498 42.7969 4.16699 41.7375 4.16699 40.5V13.5C4.16699 12.2625 4.57498 11.2031 5.39095 10.3219C6.20692 9.44063 7.18783 9 8.33366 9H41.667C42.8128 9 43.7937 9.44063 44.6097 10.3219C45.4257 11.2031 45.8337 12.2625 45.8337 13.5V40.5C45.8337 41.7375 45.4257 42.7969 44.6097 43.6781C43.7937 44.5594 42.8128 45 41.667 45H8.33366ZM25.0003 29.25L8.33366 18V40.5H41.667V18L25.0003 29.25ZM25.0003 24.75L41.667 13.5H8.33366L25.0003 24.75ZM8.33366 18V13.5V40.5V18Z" fill="#FEF7FF"/>
</svg>
