<svg width="42" height="41" viewBox="0 0 42 41" fill="none" xmlns="http://www.w3.org/2000/svg">
<g clip-path="url(#clip0_56_27)">
<path d="M26.337 8.54165C28.0463 8.8672 29.6172 9.68325 30.8486 10.8854C32.0801 12.0875 32.916 13.621 33.2495 15.2896M26.337 1.70831C29.8882 2.09343 33.1998 3.64586 35.7279 6.1107C38.2561 8.57554 39.8505 11.8063 40.2495 15.2725M38.4995 28.905V34.03C38.5015 34.5058 38.4017 34.9767 38.2064 35.4126C38.0112 35.8485 37.7248 36.2399 37.3657 36.5615C37.0065 36.8831 36.5825 37.128 36.1208 37.2804C35.6591 37.4329 35.1699 37.4895 34.6845 37.4466C29.2995 36.8755 24.1268 35.0791 19.582 32.2021C15.3537 29.5792 11.7689 26.0797 9.08202 21.9521C6.12448 17.4954 4.28394 12.4213 3.70952 7.14081C3.66579 6.6684 3.7233 6.19228 3.87839 5.74275C4.03349 5.29323 4.28277 4.88016 4.61036 4.52983C4.93795 4.17951 5.33668 3.89961 5.78115 3.70795C6.22563 3.5163 6.70611 3.41709 7.19202 3.41665H12.442C13.2913 3.40849 14.1147 3.70207 14.7586 4.24268C15.4025 4.78329 15.8232 5.53403 15.942 6.35498C16.1636 7.99509 16.5746 9.60547 17.167 11.1554C17.4025 11.7669 17.4534 12.4314 17.3139 13.0702C17.1743 13.7091 16.85 14.2955 16.3795 14.76L14.157 16.9296C16.6482 21.2065 20.2758 24.7477 24.657 27.1796L26.8795 25.01C27.3553 24.5507 27.956 24.2341 28.6105 24.0979C29.2649 23.9616 29.9456 24.0114 30.572 24.2412C32.1597 24.8196 33.8094 25.2207 35.4895 25.4371C36.3396 25.5541 37.116 25.9721 37.6709 26.6115C38.2259 27.2509 38.5208 28.0672 38.4995 28.905Z" stroke="#F3F3F3" stroke-width="4" stroke-linecap="round" stroke-linejoin="round"/>
</g>
<defs>
<clipPath id="clip0_56_27">
<rect width="42" height="41" fill="white"/>
</clipPath>
</defs>
</svg>
